<?xml version="1.0" standalone="no"?>
<!DOCTYPE svg PUBLIC "-//W3C//DTD SVG 20010904//EN"
 "http://www.w3.org/TR/2001/REC-SVG-20010904/DTD/svg10.dtd">
<svg version="1.0" xmlns="http://www.w3.org/2000/svg"
 width="260.000000pt" height="260.000000pt" viewBox="0 0 260.000000 260.000000"
 preserveAspectRatio="xMidYMid meet">
<metadata>
Created by potrace 1.14, written by Peter Selinger 2001-2017
</metadata>
<g transform="translate(0.000000,260.000000) scale(0.100000,-0.100000)"
fill="#000000" stroke="none">
<path d="M1220 2550 c-65 -17 -110 -38 -110 -52 0 -8 -95 -59 -106 -57 -4 0
-10 -5 -15 -13 -5 -7 -13 -13 -18 -13 -6 0 -35 -26 -65 -57 -30 -32 -52 -58
-48 -58 3 0 -3 -7 -14 -15 -10 -8 -14 -15 -9 -15 6 0 3 -5 -5 -10 -8 -5 -15
-13 -16 -17 0 -4 -15 -38 -32 -76 -18 -37 -32 -74 -32 -82 0 -8 -4 -15 -8 -15
-5 0 -9 -6 -9 -12 0 -7 -3 -26 -7 -43 -3 -16 -9 -59 -12 -95 -3 -36 -11 -74
-18 -85 -18 -28 -26 -65 -14 -65 5 0 6 -5 2 -12 -4 -6 1 -17 11 -25 11 -7 16
-13 12 -13 -3 0 1 -16 9 -35 16 -38 11 -63 -9 -46 -29 24 -57 0 -57 -48 1 -20
8 -63 16 -96 9 -33 18 -71 21 -85 3 -14 10 -30 15 -37 16 -20 14 -86 -2 -104
-8 -9 -26 -20 -40 -24 -36 -11 -84 -62 -118 -125 -26 -49 -29 -65 -29 -137 0
-75 -2 -85 -24 -106 -14 -12 -34 -37 -44 -55 -11 -18 -23 -32 -27 -32 -4 0 -8
-7 -8 -15 0 -8 -5 -15 -11 -15 -5 0 -7 -4 -4 -10 3 -5 2 -10 -4 -10 -5 0 -16
-10 -23 -23 -49 -87 -148 -215 -148 -190 0 4 -5 2 -11 -4 -6 -6 -17 -9 -24 -7
-6 3 -18 -2 -25 -11 -7 -8 -19 -15 -26 -15 -8 0 -14 -5 -14 -12 0 -6 -3 -9 -6
-5 -3 3 -14 -2 -24 -11 -34 -31 -50 -43 -50 -37 0 3 -8 -3 -18 -12 -16 -16
-18 -39 -20 -215 l-2 -198 1300 0 1300 0 0 233 0 234 -50 27 c-27 15 -52 31
-55 36 -3 5 -18 15 -33 23 -15 7 -43 23 -62 34 -55 31 -85 47 -90 49 -3 0 -13
4 -23 7 -44 17 -53 20 -72 24 -11 2 -24 8 -29 13 -6 6 -17 10 -26 10 -9 0 -17
6 -17 13 0 6 -4 20 -8 30 -4 9 -3 17 2 17 5 0 10 15 10 33 1 54 14 180 19 189
3 4 0 8 -6 8 -7 0 -8 6 -1 19 6 10 7 21 4 25 -4 4 -8 17 -10 29 -5 35 -45 107
-71 128 -14 10 -21 19 -16 19 5 1 -3 8 -18 16 -16 8 -28 18 -28 23 0 5 -9 11
-19 14 -38 10 -40 37 -11 125 15 45 25 82 23 82 -3 0 -1 6 4 13 5 6 8 35 8 62
0 43 -3 50 -21 53 -17 2 -20 8 -16 30 6 30 30 73 49 85 16 10 13 64 -4 78 -7
6 -13 8 -13 3 0 -5 -6 1 -14 12 -9 12 -15 49 -15 99 -1 44 -4 95 -6 113 -3 17
-7 46 -9 64 -2 18 -9 34 -15 36 -6 2 -8 8 -5 13 3 6 -2 21 -10 34 -9 14 -13
25 -10 25 4 0 0 8 -8 18 -8 9 -18 25 -21 35 -4 9 -14 17 -23 17 -10 0 -14 3
-11 6 3 4 -7 19 -23 34 -17 16 -30 31 -30 35 0 16 -129 125 -148 125 -6 0 -12
4 -14 8 -5 12 -98 64 -98 55 0 -4 -4 -2 -9 5 -4 7 -14 14 -22 15 -8 2 -20 6
-27 11 -13 8 -69 15 -162 20 -30 2 -84 -4 -120 -14z"/>
</g>
</svg>
